<svg width="1536" height="1024" viewBox="0 0 1536 1024" fill="none" xmlns="http://www.w3.org/2000/svg">
<g filter="url(#filter0_f_1_6)">
<path fill-rule="evenodd" clip-rule="evenodd" d="M1343.46 -159.578C1397.62 -156.722 1450.53 -185.752 1502.91 -171.724C1562.04 -155.892 1621.05 -126.248 1655.88 -75.9173C1691.45 -24.5065 1714.35 45.3283 1694.03 104.456C1673.53 164.115 1598.98 182.521 1552.45 225.117C1521.13 253.79 1497.58 287.576 1464.69 314.425C1426.35 345.721 1392.24 404.086 1343.46 395.699C1291.61 386.782 1288.98 304.011 1244.13 276.5C1201.21 250.17 1136.33 279.323 1098.87 245.672C1061.38 211.998 1061.27 154.098 1052.59 104.456C1042.49 46.6275 1021.56 -14.195 1043.99 -68.4427C1066.98 -124.017 1116.46 -171.563 1173.99 -189.073C1229.8 -206.055 1285.21 -162.65 1343.46 -159.578Z" fill="#0891B2" fill-opacity="0.1"/>
</g>
<g filter="url(#filter1_f_1_6)">
<path fill-rule="evenodd" clip-rule="evenodd" d="M1121.23 733.486C1170.02 745.022 1184.9 811.977 1230.26 833.327C1282.14 857.744 1350.51 829.161 1396.7 863.14C1446.65 899.89 1484.76 960.208 1486.96 1022.18C1489.18 1084.36 1448.72 1140.64 1408.27 1187.91C1371.69 1230.65 1323.51 1265.25 1268.58 1277.4C1219.04 1288.37 1171.79 1247.13 1121.23 1251.41C1063.55 1256.29 1014.71 1318.33 958.732 1303.63C904.301 1289.34 864.951 1233.51 848.304 1179.76C832.326 1128.16 873.92 1076.15 871.576 1022.18C869.077 964.646 811.648 909.468 834.264 856.504C856.327 804.834 926.076 795.748 977.715 773.611C1024.16 753.701 1072.05 721.858 1121.23 733.486Z" fill="#D97706" fill-opacity="0.4"/>
</g>
<g filter="url(#filter2_f_1_6)">
<path fill-rule="evenodd" clip-rule="evenodd" d="M182.321 32.0015C215.84 31.9352 255.768 33.9358 277.202 59.689C299.507 86.4901 267.958 134.829 290.23 161.658C320.142 197.69 391.883 182.401 413.535 223.918C432.32 259.937 413.242 312.502 383.121 339.773C352.134 367.828 302.13 350.603 261.727 361.361C233.686 368.828 211.075 389.328 182.321 393.24C150.96 397.507 119.727 393.755 89.3683 384.811C52.784 374.033 9.73745 367.361 -11.9489 336.006C-33.6604 304.614 -29.4305 261.331 -21.912 223.918C-15.0935 189.988 9.17969 163.896 28.4208 135.122C46.444 108.169 60.7152 78.1166 87.6578 60.0639C115.469 41.4291 148.837 32.0677 182.321 32.0015Z" fill="#C2410C" fill-opacity="0.35"/>
</g>
<defs>
<filter id="filter0_f_1_6" x="784" y="-443" width="1167.65" height="1089.51" filterUnits="userSpaceOnUse" color-interpolation-filters="sRGB">
<feFlood flood-opacity="0" result="BackgroundImageFix"/>
<feBlend mode="normal" in="SourceGraphic" in2="BackgroundImageFix" result="shape"/>
<feGaussianBlur stdDeviation="125" result="effect1_foregroundBlur_1_6"/>
</filter>
<filter id="filter1_f_1_6" x="329" y="231" width="1658.05" height="1574.88" filterUnits="userSpaceOnUse" color-interpolation-filters="sRGB">
<feFlood flood-opacity="0" result="BackgroundImageFix"/>
<feBlend mode="normal" in="SourceGraphic" in2="BackgroundImageFix" result="shape"/>
<feGaussianBlur stdDeviation="250" result="effect1_foregroundBlur_1_6"/>
</filter>
<filter id="filter2_f_1_6" x="-378" y="-318" width="1149" height="1063" filterUnits="userSpaceOnUse" color-interpolation-filters="sRGB">
<feFlood flood-opacity="0" result="BackgroundImageFix"/>
<feBlend mode="normal" in="SourceGraphic" in2="BackgroundImageFix" result="shape"/>
<feGaussianBlur stdDeviation="175" result="effect1_foregroundBlur_1_6"/>
</filter>
</defs>
</svg>
