<svg xmlns="http://www.w3.org/2000/svg" width="1536" height="1024" fill="none"><g filter="url(#a)"><path fill="#0891B2" fill-opacity=".1" fill-rule="evenodd" d="M1343.46-159.578c54.16 2.856 107.07-26.174 159.45-12.146 59.13 15.832 118.14 45.476 152.97 95.807 35.57 51.41 58.47 121.245 38.15 180.373-20.5 59.659-95.05 78.065-141.58 120.661-31.32 28.673-54.87 62.459-87.76 89.308-38.34 31.296-72.45 89.661-121.23 81.274-51.85-8.917-54.48-91.688-99.33-119.199-42.92-26.33-107.8 2.823-145.26-30.828-37.49-33.674-37.6-91.574-46.28-141.216-10.1-57.829-31.03-118.651-8.6-172.899 22.99-55.574 72.47-103.12 130-120.63 55.81-16.982 111.22 26.423 169.47 29.495Z" clip-rule="evenodd"/></g><g filter="url(#b)"><path fill="#D97706" fill-opacity=".4" fill-rule="evenodd" d="M1121.23 733.486c48.79 11.536 63.67 78.491 109.03 99.841 51.88 24.417 120.25-4.166 166.44 29.813 49.95 36.75 88.06 97.068 90.26 159.04 2.22 62.18-38.24 118.46-78.69 165.73-36.58 42.74-84.76 77.34-139.69 89.49-49.54 10.97-96.79-30.27-147.35-25.99-57.68 4.88-106.52 66.92-162.498 52.22-54.431-14.29-93.781-70.12-110.428-123.87-15.978-51.6 25.616-103.61 23.272-157.58-2.499-57.534-59.928-112.712-37.312-165.676 22.063-51.67 91.812-60.756 143.451-82.893 46.445-19.91 94.335-51.753 143.515-40.125Z" clip-rule="evenodd"/></g><g filter="url(#c)"><path fill="#C2410C" fill-opacity=".35" fill-rule="evenodd" d="M182.321 32.002c33.519-.067 73.447 1.934 94.881 27.687 22.305 26.801-9.244 75.14 13.028 101.969 29.912 36.032 101.653 20.743 123.305 62.26 18.785 36.019-.293 88.584-30.414 115.855-30.987 28.055-80.991 10.83-121.394 21.588-28.041 7.467-50.652 27.967-79.406 31.879-31.361 4.267-62.594.515-92.953-8.429-36.584-10.778-79.63-17.45-101.317-48.805-21.711-31.392-17.481-74.675-9.963-112.088 6.818-33.93 31.092-60.022 50.333-88.796 18.023-26.953 32.294-57.005 59.237-75.058C115.469 41.429 148.837 32.068 182.32 32Z" clip-rule="evenodd"/></g><defs><filter id="a" width="1167.65" height="1089.51" x="784" y="-443" color-interpolation-filters="sRGB" filterUnits="userSpaceOnUse"><feFlood flood-opacity="0" result="BackgroundImageFix"/><feBlend in="SourceGraphic" in2="BackgroundImageFix" result="shape"/><feGaussianBlur result="effect1_foregroundBlur_1_6" stdDeviation="125"/></filter><filter id="b" width="1658.05" height="1574.88" x="329" y="231" color-interpolation-filters="sRGB" filterUnits="userSpaceOnUse"><feFlood flood-opacity="0" result="BackgroundImageFix"/><feBlend in="SourceGraphic" in2="BackgroundImageFix" result="shape"/><feGaussianBlur result="effect1_foregroundBlur_1_6" stdDeviation="250"/></filter><filter id="c" width="1149" height="1063" x="-378" y="-318" color-interpolation-filters="sRGB" filterUnits="userSpaceOnUse"><feFlood flood-opacity="0" result="BackgroundImageFix"/><feBlend in="SourceGraphic" in2="BackgroundImageFix" result="shape"/><feGaussianBlur result="effect1_foregroundBlur_1_6" stdDeviation="175"/></filter></defs></svg>